<svg class="svg-icon" style="width: 1em; height: 1em;vertical-align: middle;fill: currentColor;overflow: hidden;" viewBox="0 0 1024 1024" version="1.1" xmlns="http://www.w3.org/2000/svg"><path d="M1024 512c0-282.763636-229.236364-512-512-512C229.236364 0 0 229.236364 0 512c0 282.763636 229.236364 512 512 512C794.763636 1024 1024 794.763636 1024 512zM835.630545 707.956364l-176.221091-148.48 42.868364-24.203636 156.206545 125.533091L835.630545 707.956364zM162.909091 325.818182l349.090909 209.454545L861.090909 325.818182l0 46.545455L512 581.818182 162.909091 372.363636 162.909091 325.818182zM170.263273 698.507636l-22.807273-47.150545 156.16-125.533091 42.868364 24.203636L170.263273 698.507636z"  /></svg>